{"title":"Apollo 18 2011 TS XViD DTRG","uid":6650349,"size":1369122505,"categoryP":"video","categoryS":"movies","magnet":"?xt=urn:btih:780642d607766e5e71dba42746c98e82d5d83ef4&amp;dn=Apollo+18+2011+TS+XViD+DTRG&amp;tr=udp%3A%2F%2Ftracker.openbittorrent.com%3A80&amp;tr=udp%3A%2F%2Fopen.demonii.com%3A1337&amp;tr=udp%3A%2F%2Ftracker.coppersurfer.tk%3A6969&amp;tr=udp%3A%2F%2Fexodus.desync.com%3A6969","seeders":0,"leechers":0,"uploader":"SAFCukO09","files":3,"time":1315124058,"description":"Format : AVI\nFormat/Info : Audio Video Interleave\nFile size : 1.28 GiB\nDuration : 1h 14mn\nOverall bit rate : 2 460 Kbps\nWriting library : VirtualDub build 32842/release\n\nVideo\nID : 0\nFormat : MPEG-4 Visual\nFormat profile : Advanced Simple@L5\nFormat settings, BVOP : 2\nFormat settings, QPel : No\nFormat settings, GMC : No warppoints\nFormat settings, Matrix : Default (H.263)\nMuxing mode : Packed bitstream\nCodec ID : XVID\nCodec ID/Hint : XviD\nDuration : 1h 14mn\nBit rate : 2 323 Kbps\nWidth : 624 pixels\nHeight : 338 pixels\nDisplay aspect ratio : 16:9\nFrame rate : 25.000 fps\nColor space : YUV\nChroma subsampling : 4:2:0\nBit depth : 8 bits\nScan type : Progressive\nCompression mode : Lossy\nBits/(Pixel*Frame) : 0.440\nStream size : 1.20 GiB (94%)\nWriting library : XviD 63\n\nAudio\nID : 1\nFormat : MPEG Audio\nFormat version : Version 1\nFormat profile : Layer 3\nMode : Joint stereo\nMode extension : MS Stereo\nCodec ID : 55\nCodec ID/Hint : MP3\nDuration : 1h 14mn\nBit rate mode : Constant\nBit rate : 128 Kbps\nChannel(s) : 2 channels\nSampling rate : 44.1 KHz\nCompression mode : Lossy\nStream size : 67.9 MiB (5%)\nAlignment : Split accross interleaves\nInterleave, duration : 40 ms (1.00 video frame)\nInterleave, preload duration : 500 ms\nWriting library : LAME3.98r\nEncoding settings : -m j -V 4 -q 2 -lowpass 17 -b 128\n\n\n\n\n\n\n &lt;a href=&quot;\nhttp://www.imdb.com/title/tt1772240/&quot; rel=&quot;nofollow&quot; target=&quot;_NEW&quot;&gt;\nhttp://www.imdb.com/title/tt1772240/&lt;/a&gt;\n\n\n\n\n\n\n\n\nRatings: 7.6/10 from 750 users Metascore: 18/100\nReviews: 37 user | 3 critic | 8 from Metacritic.com\n\nDecades-old found footage from NASA's abandoned Apollo 18 mission, where two American astronauts were sent on a secret expedition, reveals the reason the U.S. has never returned to the moon.\nDirector:\nGonzalo LÃƒÂ³pez-Gallego\nWriters:\nBrian Miller (screenplay), Cory Goodman\nStars:\nWarren Christie, Lloyd Owen and Ryan Robbins\n\n\n\n\n\n\n\n\n\n\n\n\n\n\n\n\n\n\n\n\n\n\nSource Used\n\n\nVideo .... RUSSIAN CAMRiP........Thanks\nAudio ....................CHOiCE........Thanks\n\nNote 1st 3 mins are missing of the vid and no end credits but nothing else missing just that 3 mins of vid.The movie itself is kinda meant to look like this its to give it a 1974 feeling on the moon\n\nDenoised ,resized ,change the levels filter ,altered rgb and added saturation\n\nEnjoy\n\n","torrent":{"xt":"urn:btih:780642d607766e5e71dba42746c98e82d5d83ef4","amp;dn":"Apollo+18+2011+TS+XViD+DTRG","amp;tr":["udp%3A%2F%2Ftracker.openbittorrent.com%3A80","udp%3A%2F%2Fopen.demonii.com%3A1337","udp%3A%2F%2Ftracker.coppersurfer.tk%3A6969","udp%3A%2F%2Fexodus.desync.com%3A6969"],"infoHash":"780642d607766e5e71dba42746c98e82d5d83ef4","infoHashBuffer":{"type":"Buffer","data":[120,6,66,214,7,118,110,94,113,219,164,39,70,201,142,130,213,216,62,244]},"announce":[],"urlList":[]}}